<?xml version="1.0" encoding="UTF-8"?>
<svg version="1.1" viewBox="0 0 1600 1600" width="1280" height="1280" xmlns="http://www.w3.org/2000/svg">
<style>
    .dark-mode { fill: white }
    .light-mode { fill: black }
    @media (prefers-color-scheme: dark) {
        .dark-mode { fill: white }
        .light-mode { fill: black }
    }
</style>
<path transform="translate(1478,65)" d="m0 0c1.12 0.0541 1.12 0.0541 2.26 0.109 18.6 0.902 37.2 1.86 55.7 2.89 1.28 2.57 0.985 4.08 0.766 6.94-0.117 1.56-0.117 1.56-0.236 3.16-0.0923 1.15-0.185 2.29-0.28 3.47-0.0932 1.2-0.186 2.4-0.282 3.63-0.314 3.97-0.639 7.95-0.968 11.9-0.0558 0.68-0.112 1.36-0.169 2.06-7.54 91.8-23.1 183-52.8 285-1.07 3.53-2.1 7.06-3.13 10.6-4.39 15-9.26 29.7-14.6 44.4-2.67 7.34-5.03 14.8-7.24 22.2-4.1-3.46-5.72-7.33-7.74-12.2-0.702-1.63-1.41-3.26-2.11-4.89-0.356-0.827-0.713-1.65-1.08-2.51-1.63-3.73-3.37-7.41-5.11-11.1-0.335-0.708-0.671-1.42-1.02-2.15-0.688-1.45-1.38-2.9-2.07-4.35-1.86-3.91-3.71-7.82-5.56-11.7-0.369-0.78-0.739-1.56-1.12-2.36-6.67-14.1-13.3-28.2-19.6-42.4-0.432-0.967-0.432-0.967-0.873-1.95-1.37-3.08-2.74-6.16-4.11-9.25-3.1-6.99-6.4-13.8-9.85-20.7-2.73-5.47-5.29-11-7.85-16.6-0.562-1.22-1.12-2.43-1.69-3.65-0.87-1.88-1.74-3.76-2.61-5.64-1.92-4.16-3.85-8.31-5.78-12.5-4.68-10-9.34-20.1-13.9-30.2-0.518-1.14-0.518-1.14-1.05-2.31-1.7-3.74-3.39-7.49-5.08-11.2-0.613-1.36-1.23-2.71-1.84-4.07-0.54-1.2-1.08-2.4-1.64-3.63-1.03-2.56-1.03-2.56-2.28-3.7-8.17 18-15.7 36.3-23.1 54.6-0.39 0.957-0.779 1.91-1.18 2.9-0.391 0.96-0.782 1.92-1.18 2.91-3.98 9.77-8.02 19.5-12.1 29.3-0.346 0.833-0.692 1.67-1.05 2.52-1.4 3.37-2.8 6.73-4.2 10.1-2.57 6.17-5.13 12.3-7.69 18.5-0.37 0.893-0.74 1.79-1.12 2.71-0.741 1.79-1.48 3.58-2.22 5.37-4.81 11.6-9.63 23.2-14.5 34.8-1.15 2.76-2.3 5.52-3.45 8.27-0.895 2.15-1.79 4.29-2.69 6.44-5.57 13.3-11.1 26.7-16.1 40.2-0.292 0.785-0.585 1.57-0.886 2.38-0.372 1.01-0.372 1.01-0.752 2.04-0.817 2.04-1.76 3.97-2.77 5.92-3.95-3.76-7.21-7.74-10.4-12.1-0.515-0.694-1.03-1.39-1.56-2.1-1.67-2.25-3.34-4.51-5-6.77-1.13-1.54-2.27-3.07-3.4-4.61-2.94-3.99-5.88-7.98-8.82-12-2.92-3.98-5.85-7.95-8.78-11.9-1.17-1.58-2.33-3.17-3.5-4.75-0.866-1.18-0.866-1.18-1.75-2.38-5.25-7.12-5.25-7.12-7-9.5-1.16-1.58-2.33-3.16-3.5-4.74-2.94-3.99-5.89-7.99-8.82-12-1.18-1.61-2.37-3.22-3.55-4.83-0.575-0.782-1.15-1.56-1.74-2.37-4.37-5.93-8.78-11.8-13.2-17.7-2.77-3.67-5.39-7.4-7.91-11.2-2.49 2.49-2.89 4.4-3.9 7.76-0.368 1.21-0.736 2.43-1.12 3.68-0.4 1.34-0.8 2.69-1.2 4.03-0.421 1.4-0.843 2.8-1.26 4.19-1.12 3.71-2.23 7.43-3.34 11.1-1.09 3.64-2.19 7.29-3.28 10.9-1.53 5.09-3.06 10.2-4.59 15.3-2.84 9.45-5.69 18.9-8.55 28.3-0.21 0.692-0.42 1.38-0.636 2.1-1.37 4.52-2.74 9.04-4.11 13.6-2.17 7.15-4.34 14.3-6.5 21.4-0.405 1.34-0.405 1.34-0.817 2.7-3.7 12.2-7.35 24.5-10.9 36.7-2.92 9.98-5.9 19.9-9 29.9-3.74 12-7.45 24-11.1 36-0.618 2.02-1.24 4.04-1.86 6.05-3.59 11.7-6.97 23.3-9.77 35.2-4.32-1.89-5.5-4.14-7.75-8.31-3.51-6.47-7.31-12.7-11.2-19-2.74-4.43-5.43-8.9-8.13-13.4-1.09-1.8-2.18-3.6-3.28-5.4-3.52-5.8-7.04-11.6-10.6-17.4-6.23-10.3-12.5-20.5-19.1-30.6-2.72 3.24-4.88 6.38-6.78 10.1-0.507 0.994-1.01 1.99-1.54 3.01-0.536 1.06-1.07 2.12-1.62 3.22-4.39 8.57-8.9 17-13.7 25.4-4.65 8.13-9.1 16.3-13.4 24.7-5.44 10.5-11 20.9-17.2 31-1.95 3.2-3.68 6.44-5.31 9.81-3.01 6.14-6.37 12.1-9.75 18-4.22 7.41-8.35 14.8-12.3 22.4-4.5 8.58-9.17 17.1-13.8 25.6-1.55 2.83-3.1 5.67-4.64 8.51-4.98 9.15-9.98 18.3-15.1 27.4-3.49 6.27-6.89 12.6-10.3 18.9-4.5 8.36-9.15 16.6-14 24.8-2.66 4.55-5.14 9.14-7.42 13.9-2.49 4.92-5.37 9.62-8.19 14.4 4.06-1.6 6.68-4.52 9.62-7.62 1.75-1.85 3.53-3.62 5.38-5.38h2v-2c1.22-1.23 1.22-1.23 3.06-2.75 4.18-3.55 8.19-7.25 12.2-11 18.6-17.4 18.6-17.4 25.2-22.8 2.3-2.04 4.44-4.23 6.6-6.41 15.2-15.4 15.2-15.4 21.3-20.5 2.43-2.12 4.65-4.42 6.91-6.72 2.5-2.46 5.16-4.71 7.81-7 1.9-1.69 3.69-3.44 5.47-5.25 3.04-3.09 6.25-5.92 9.53-8.75 1.9-1.69 3.69-3.44 5.47-5.25 2.39-2.43 4.85-4.71 7.44-6.94 2.81-2.42 5.46-4.92 8.06-7.56 5.34-5.41 11.1-10.3 17-15 0.301 0.537 0.601 1.07 0.911 1.63 5.95 10.6 12 21.1 18.6 31.3 3.99 6.25 7.83 12.6 11.6 18.9 3.07 5.16 6.17 10.3 9.3 15.4 0.383 0.628 0.765 1.26 1.16 1.9 1.53 2.52 3.07 5.03 4.61 7.54 1.07 1.75 2.14 3.51 3.22 5.27 0.62 1.01 1.24 2.03 1.88 3.07 1.71 2.93 1.71 2.93 3.31 6.25 1.12 2.79 1.12 2.79 3.4 3.69 0.241-0.828 0.482-1.66 0.73-2.51 1.48-4.07 3.43-7.62 5.58-11.4 0.906-1.61 1.81-3.21 2.71-4.82 0.482-0.856 0.964-1.71 1.46-2.59 2.68-4.79 5.28-9.63 7.89-14.5 4.68-8.66 9.38-17.3 14.1-26 2.59-4.75 5.17-9.5 7.74-14.3 5.25-9.75 10.6-19.4 16.1-29 3.82-6.61 7.41-13.3 10.8-20.1 2.77-5.64 5.79-11.1 8.87-16.6 3.54-6.31 7-12.7 10.4-19 4.15-7.68 8.31-15.3 12.5-23 5.41-9.9 10.7-19.8 16.1-29.8 2.95-5.53 5.92-11 9.07-16.5 3.08 2.65 4.77 5.95 6.62 9.5 0.346 0.656 0.693 1.31 1.05 1.99 3.12 5.98 5.98 12.1 8.83 18.2 3.05 6.48 6.31 12.8 9.7 19.1 3.65 6.82 7.09 13.7 10.5 20.7 1.94 3.89 3.89 7.77 5.83 11.7 2.22 4.43 4.44 8.86 6.66 13.3 1.15 2.3 2.3 4.59 3.45 6.89 1.68 3.35 3.36 6.69 5.03 10 0.517 1.03 1.03 2.06 1.57 3.12 0.475 0.949 0.949 1.9 1.44 2.88 0.418 0.833 0.836 1.67 1.27 2.53 1.02 2.15 1.02 2.15 2.02 5.15 3.19-2.68 4.73-6.13 6.5-9.81 0.712-1.45 1.42-2.9 2.14-4.35 0.381-0.781 0.762-1.56 1.15-2.37 2.15-4.39 4.34-8.76 6.52-13.1 0.94-1.88 1.88-3.77 2.82-5.65 0.472-0.946 0.944-1.89 1.43-2.87 0.958-1.92 1.92-3.84 2.87-5.77 4.86-9.77 9.75-19.5 14.9-29.1 3.09-5.75 5.86-11.6 8.59-17.5 2.72-5.82 5.66-11.5 8.67-17.2 5.68-10.7 11.1-21.5 16.5-32.4 0.966-1.94 1.93-3.87 2.9-5.81 2.33-4.67 4.65-9.33 6.98-14 3 1.5 3.23 3.65 4.43 6.75 0.479 1.22 0.957 2.43 1.45 3.69 0.253 0.652 0.506 1.3 0.767 1.98 1.33 3.44 2.69 6.87 4.05 10.3 0.276 0.699 0.552 1.4 0.836 2.12 2.63 6.65 5.41 13.2 8.21 19.8 3.54 8.3 7.01 16.6 10.3 25 1.75 4.44 3.56 8.85 5.43 13.2 0.417 0.989 0.835 1.98 1.27 3 0.807 1.91 1.62 3.81 2.45 5.71 2.32 5.52 4.35 10.4 2.05 16.3-1.07 2.21-2.23 4.33-3.44 6.46-0.93 1.69-1.86 3.39-2.79 5.09-0.495 0.898-0.99 1.8-1.5 2.72-1.55 2.87-3.05 5.76-4.52 8.67-7.46 14.7-15.6 28.9-24.1 43-2.35 3.91-4.65 7.85-6.95 11.8-7.02 12-14.4 23.7-22 35.4-0.633 0.977-1.27 1.95-1.92 2.96-4.34 6.69-8.7 13.4-13.1 20-0.453 0.691-0.906 1.38-1.37 2.09-7.35 11.2-15 22.2-22.7 33.2-1.72 2.46-3.44 4.93-5.16 7.4-6.5 9.32-13.3 18.4-20.2 27.4-1.83 2.36-3.65 4.73-5.47 7.1-1.22 1.59-2.44 3.17-3.66 4.76-1.59 2.07-3.18 4.15-4.77 6.23-6.69 8.78-13.6 17.3-20.6 25.9-0.589 0.718-1.18 1.44-1.78 2.18-6.61 8.05-13.2 16.1-19.9 24.1-1.48 1.79-2.95 3.59-4.4 5.4-5.57 6.96-11.6 13.4-17.7 19.9-2.83 3.01-5.56 6.08-8.25 9.21-3.49 3.93-7.14 7.72-10.8 11.5-4.2 4.49-8.07 9.08-11.8 14-0.48 0.548-0.959 1.1-1.45 1.66h-2l-0.613 1.61c-1.99 3.43-4.73 5.9-7.57 8.64-5.36 5.25-5.36 5.25-10.4 10.8-2.97 3.5-6.17 6.71-9.44 9.94-3.92 3.88-7.71 7.81-11.3 12-2.03 2.37-4.12 4.68-6.21 6.99-2.68 2.97-5.33 5.96-7.94 9-4.27 4.89-8.72 9.68-13.6 14h-2v2c-18.8 16-42 26.2-66.8 26.2-0.934 0.0122-1.87 0.0245-2.83 0.0371-24.8 0.0516-51.9-12.6-71.4-27.2l-1.57-1.17c-16-11.9-30.8-24.9-44.9-39-0.83-0.828-0.83-0.828-1.68-1.67-7.46-7.46-14.4-14.9-20.6-23.5-1.9-2.53-3.92-4.95-5.94-7.39-26.3-31.7-49.6-68.3-67.4-105-1.6-3.31-3.25-6.59-4.9-9.87-0.673-1.35-1.35-2.7-2.02-4.05-1.26-2.52-2.53-5.03-3.8-7.53-2.1-4.12-4.14-8.27-6.18-12.4l-1.35-2.73c-22.7-46.4-39.4-96.1-52.1-146-0.533-2.1-1.07-4.2-1.61-6.3-11.4-44.4-19.1-89.5-23.2-135-0.0815-0.892-0.163-1.78-0.247-2.7-1.9-21.1-2.65-42.2-2.63-63.4 6.04e-4 -1.09 0.00121-2.19 0.00183-3.31 0.0267-17.9 0.479-35.5 2.19-53.3 0.0947-1.01 0.0947-1.01 0.191-2.03 5.75-60.7 19.2-163 68.8-206 2.94-1.76 5.99-3.01 9.19-4.25 0.901-0.367 1.8-0.734 2.73-1.11 1.97-0.799 3.94-1.59 5.91-2.37 3.34-1.33 6.67-2.7 9.99-4.07 11.2-4.63 22.5-9.11 33.9-13.3 2.42-0.898 4.83-1.8 7.24-2.7 32.3-12.1 64.7-23.9 97.7-34 1.02-0.311 1.02-0.311 2.06-0.629 5.1-1.55 10.2-3.06 15.3-4.56 1-0.295 2-0.59 3.03-0.894 17.7-5.22 35.5-9.83 53.5-14 1.93-0.455 3.86-0.91 5.79-1.37 21.7-5.12 43.5-9.86 65.4-14.2 2.8-0.563 5.59-1.14 8.38-1.72 58-12 118-18.1 177-20.7 1.61-0.0751 1.61-0.0751 3.26-0.152 68.3-3.18 136-2.17 205 1.15zm-575 138c-0.794 0.298-1.59 0.595-2.41 0.902-19.9 7.64-38.2 18.3-53.6 33.1-1.27 1.22-1.27 1.22-2.57 2.46-10.6 10.2-21 20.4-29.4 32.5-0.786 1.02-1.57 2.04-2.38 3.09-31.5 41.1-47.5 100-41.1 151 4.29 30.7 16.6 59.5 41.9 78.7 22 15.4 48 19.4 74.4 14.8 16.9-3.56 32.6-11 47.2-20l3.16-1.93c8.27-5.27 15.5-11.6 22.8-18.1l2.86-2.52c22.8-20.3 40.3-45.8 53.1-73.5 0.501-1.07 0.501-1.07 1.01-2.17 18.8-41 27.6-93.6 12.4-137-2.17-5.7-4.68-11.2-7.39-16.6-0.4-0.883-0.799-1.77-1.21-2.68-3.05-6.57-7.11-11.8-11.8-17.3l-1.46-1.87c-12.8-16-34.2-26.6-54.3-29.5-2.75-0.284-5.47-0.472-8.23-0.602-0.764-0.0412-1.53-0.0825-2.32-0.125-14.1-0.381-27.5 2.18-40.7 7.12z" fill="#000102"/>
<path transform="translate(294,385)" d="m0 0c4.46 0.596 7.94 2.4 11.8 4.56 1.34 0.735 2.69 1.47 4.04 2.2 0.689 0.374 1.38 0.749 2.09 1.13 3.24 1.73 6.52 3.35 9.82 4.98 2.75 1.37 5.5 2.75 8.25 4.12 0.695 0.347 1.39 0.694 2.11 1.05 13.8 6.91 26.8 14.8 39.9 22.9 3.44 2.12 6.9 4.23 10.4 6.31 7.21 4.34 14.2 8.74 21 13.8 2.88 2.14 5.84 4.17 8.8 6.2 7.78 5.34 15.3 11 22.8 16.8 0.723 0.548 1.45 1.1 2.19 1.66 8.74 6.62 17.4 13.3 25.8 20.3 0.51 0.425 1.02 0.851 1.55 1.29 15.1 12.6 29.1 26.2 43 40.1 1.34 1.33 2.68 2.66 4.03 3.99 1.9 1.88 3.79 3.77 5.68 5.66 0.58 0.573 1.16 1.15 1.76 1.74 3.99 4.01 3.99 4.01 3.99 6.24h2c1.41 1.57 2.76 3.21 4.06 4.88 2.97 3.73 6 7.33 9.25 10.8 6.09 6.7 11.3 14 16.7 21.3 0.798 1.08 0.798 1.08 1.61 2.19 13.3 18.1 25.5 36.8 37.4 55.8 0.833 1.32 0.833 1.32 1.68 2.67 1.32 2.33 1.32 2.33 1.32 4.33 6.34-5.35 12.2-11.1 18-17 5.27-5.35 10.5-10.6 16.2-15.5 3.31-2.84 6.47-5.83 9.67-8.8 2.1-1.72 2.1-1.72 4.1-1.72v-2c1.64-1.69 1.64-1.69 3.81-3.56 0.708-0.62 1.42-1.24 2.14-1.88 2.04-1.56 2.04-1.56 5.04-2.56 0.22 1.07 0.441 2.15 0.667 3.25 5.32 25.8 11.2 51.4 18.3 76.7 0.203 0.726 0.405 1.45 0.614 2.2 9.64 34.4 20.7 68.5 34.5 102 0.849 2.25 0.849 2.25 0.833 4.24-1.53 3.12-4.08 5-6.73 7.13l-1.76 1.45c-4.5 3.69-9.11 7.26-13.7 10.8-7.81 5.94-15.3 12.2-22.8 18.6 0.519 2.63 1.04 5.25 1.56 7.88 0.263 1.33 0.263 1.33 0.532 2.69 1.1 5.54 2.25 11.1 3.45 16.6 20.3 94.2 25.9 191 30.8 313 0.348 8.82 0.702 17.6 1.06 26.5 0.254 6.33 0.508 12.7 0.758 19 0.537 13.6 1.13 27.1 1.8 40.6-2.43-2.32-3.58-4-4.65-7.21-0.288-0.851-0.576-1.7-0.873-2.58-0.303-0.924-0.606-1.85-0.917-2.8-0.486-1.44-0.486-1.44-0.981-2.92-0.694-2.07-1.38-4.13-2.07-6.2-1.79-5.4-3.61-10.8-5.43-16.2-0.356-1.06-0.712-2.12-1.08-3.21-2.71-8.06-5.5-16.1-8.38-24.1-0.389-1.08-0.777-2.16-1.18-3.27-0.763-2.12-1.53-4.23-2.29-6.35-5.83-16.1-11.6-32.3-17.1-48.5-8.81-25.6-17.8-51.2-27-76.7-0.516-1.42-1.03-2.84-1.55-4.26-13.4-37-27.2-73.9-41.4-111-3.03-7.82-6.02-15.7-8.96-23.5-0.308-0.813-0.615-1.63-0.932-2.46-0.281-0.756-0.561-1.51-0.85-2.29-0.25-0.668-0.5-1.34-0.757-2.02-0.534-1.8-0.534-1.8-0.534-4.8-5.43 3.91-10.4 8.07-15.2 12.7-1.31 1.24-2.62 2.47-3.93 3.71-0.643 0.608-1.29 1.22-1.95 1.84-2.74 2.58-5.53 5.11-8.31 7.64-3.97 3.63-7.82 7.34-11.6 11.2-1.81 1.78-3.66 3.42-5.59 5.06-5.94 5.16-11.4 10.8-16.8 16.5-0.815 0.826-1.63 1.65-2.47 2.5-0.735 0.751-1.47 1.5-2.23 2.28-1.84 1.63-1.84 1.63-3.84 1.63v2c-1.45 1.45-1.45 1.45-3.46 3.14-0.731 0.623-1.46 1.25-2.21 1.89-0.767 0.652-1.53 1.3-2.33 1.98-2.93 2.55-5.79 5.16-8.62 7.81-0.744 0.648-1.49 1.3-2.25 1.96-3.92 3.64-3.92 3.64-5.25 8.61 0.486 2.66 1.22 5.07 2.13 7.62 0.379 1.19 0.379 1.19 0.767 2.4 0.848 2.59 1.76 5.16 2.67 7.73 8.16 23.9 14.7 48.4 19.8 73.1 0.143 0.682 0.285 1.36 0.432 2.07 0.939 4.53 1.83 9.07 2.71 13.6 0.452 2.33 0.908 4.66 1.37 6.99 4.36 22.2 8.14 44.4 11.3 66.7 0.342 2.38 0.687 4.76 1.03 7.13 3.76 25.8 7.23 51.7 10.5 77.6 0.232 1.85 0.232 1.85 0.47 3.73 0.286 2.28 0.57 4.56 0.852 6.84 0.125 1 0.25 2 0.379 3.04 0.16 1.3 0.16 1.3 0.323 2.62 0.245 1.71 0.545 3.42 0.886 5.11 0.486 2.45 0.564 4.66 0.527 7.15-0.00902 0.79-0.018 1.58-0.0273 2.39-0.0174 0.888-0.0174 0.888-0.0352 1.79-2.2-2.76-3.78-5.42-5.2-8.64-0.4-0.897-0.8-1.79-1.21-2.72-0.421-0.954-0.842-1.91-1.28-2.89-3.24-7.23-6.55-14.4-10.1-21.4-2.51-4.95-4.91-9.94-7.29-15-5.97-12.6-12.3-24.9-18.7-37.3-2.44-4.67-4.84-9.36-7.17-14.1-8.59-17.3-17.6-34.5-26.9-51.4-2.79-5.09-5.54-10.2-8.27-15.3-6.24-11.7-12.7-23.2-19.3-34.7-1.62-2.81-3.22-5.63-4.82-8.45-0.544-0.959-1.09-1.92-1.65-2.91-1.04-1.84-2.08-3.68-3.12-5.52-0.47-0.826-0.939-1.65-1.42-2.5-0.616-1.09-0.616-1.09-1.24-2.2-1.3-2.12-2.73-4.08-4.25-6.05-4.25 3.32-7.72 6.86-11.2 11-1.69 1.93-3.45 3.74-5.29 5.54-4.53 4.45-8.69 9.21-12.6 14.2-2.6 3.21-5.55 6.02-8.5 8.9-2.92 2.88-5.75 5.8-8.43 8.91-3.54 4.11-7.23 8.05-10.9 12-4.29 4.57-8.52 9.16-12.6 13.9-2.03 2.3-4.19 4.45-6.4 6.59 1.83 5.69 3.85 11.3 6.01 16.8 19 49.3 28.5 101 38.4 153 1.13 5.83 2.29 11.7 3.49 17.5 0.147 0.718 0.294 1.44 0.445 2.18 0.67 3.28 1.35 6.55 2.03 9.82 0.227 1.11 0.455 2.22 0.689 3.36 0.199 0.954 0.399 1.91 0.604 2.89 0.294 2.25 0.294 2.25-0.706 4.25-6.37-8.61-12.6-17.3-18.7-26.1-7.22-10.5-14.5-20.9-22-31.2-5.92-8.15-11.6-16.4-17.3-24.8-1.21-1.78-2.42-3.55-3.63-5.33-1.94-2.84-3.88-5.69-5.82-8.53-4.14-6.08-8.3-12.2-12.5-18.2-2.49-3.61-4.96-7.23-7.43-10.8-0.862-1.27-0.862-1.27-1.74-2.56-1.11-1.62-2.21-3.25-3.31-4.87-3.4-4.99-6.93-9.85-10.6-14.6-4.19 2.92-6.95 6.36-9.98 10.4-2.24 2.92-4.59 5.74-6.95 8.56-6.55 7.82-12.9 15.8-19.1 23.9-3.28 4.27-6.62 8.48-9.99 12.7-4.67 5.82-9.28 11.7-13.8 17.6-1.38 1.79-2.78 3.56-4.23 5.29-0.57 0.69-1.14 1.38-1.73 2.09-0.49 0.567-0.98 1.13-1.48 1.72-1 1.83-1 1.83-0.188 4.07 1.4 2.67 2.97 5.17 4.65 7.67 19.9 29.9 36.8 78.7 36.8 115-4.15-1.66-7.07-4.66-10.2-7.69-1.17-1.1-2.34-2.19-3.51-3.29-0.842-0.789-0.842-0.789-1.7-1.59-1.83-1.7-3.71-3.36-5.6-4.99-4.86-4.21-9.58-8.58-14.3-12.9-1.68-1.55-3.36-3.09-5.05-4.63-5.1-4.68-10.2-9.39-15-14.3-2.26-2.22-4.66-4.25-7.05-6.31-2.12-1.89-4.2-3.81-6.26-5.76-0.669-0.632-1.34-1.26-2.03-1.92-1.35-1.28-2.7-2.57-4.04-3.85-0.626-0.593-1.25-1.19-1.9-1.8-0.843-0.805-0.843-0.805-1.7-1.63-1.68-1.51-1.68-1.51-4.59-2.29-0.0941 0.559-0.188 1.12-0.285 1.7-0.898 2.89-2.33 4.76-4.15 7.18-3.13 4.2-6.22 8.42-9.25 12.7-3.34 4.69-6.7 9.36-10.1 14-11.8 16.3-23 33-34.1 49.8-2.41 3.63-4.83 7.25-7.26 10.9-11 16.4-21.6 33-31.8 49.8-1.03 1.68-1.03 1.68-2.08 3.4-11.1 17.9-11.1 17.9-21.4 36.3-2.31 4.25-2.31 4.25-4.51 5.35 1-16.4 5.42-32.2 9.51-48.1 0.446-1.73 0.887-3.47 1.33-5.2 12.9-50.7 33.5-99.7 55-147 0.301-0.666 0.602-1.33 0.912-2.02 0.877-1.94 1.76-3.87 2.64-5.8 0.283-0.62 0.566-1.24 0.857-1.88 1.57-3.41 3.23-6.76 4.97-10.1 0.375-0.72 0.749-1.44 1.14-2.18 0.725-1.38 1.46-2.76 2.21-4.13 1.42-2.72 2.45-4.71 2.19-7.82-0.923-2.92-2-4.22-4.17-6.37-1.07-1.07-1.07-1.07-2.15-2.16-0.773-0.755-1.55-1.51-2.34-2.29-0.791-0.787-1.58-1.57-2.4-2.39-1.67-1.66-3.35-3.32-5.03-4.97-2.58-2.53-5.14-5.08-7.7-7.62-1.63-1.61-3.25-3.22-4.88-4.83-0.769-0.761-1.54-1.52-2.33-2.31-0.717-0.704-1.43-1.41-2.17-2.13-0.63-0.62-1.26-1.24-1.91-1.88-1.84-1.76-1.84-1.76-4.72-3.57v-2c-0.536-0.209-1.07-0.419-1.62-0.635-3.3-1.9-5.75-4.51-8.38-7.21-0.567-0.572-1.13-1.14-1.72-1.73-1.8-1.82-3.6-3.65-5.4-5.48-1.81-1.83-3.61-3.66-5.42-5.49-1.12-1.14-2.25-2.28-3.37-3.42-2.77-2.87-2.77-2.87-6.09-5.03v-2c-1.32-0.66-2.64-1.32-4-2v-1c8.72 0.516 17.2 1.55 25.8 3.19 1.16 0.22 2.32 0.44 3.52 0.667 23.1 4.46 47.2 9.43 68.6 19.3 2.19 1.03 2.19 1.03 5.11 0.848 0.874-1.67 0.874-1.67 1.77-3.38 6.6-12.6 13.4-25.1 20.2-37.6 0.412-0.75 0.824-1.5 1.25-2.27 10.3-18.8 20.9-37.3 31.8-55.8 0.793-1.35 0.793-1.35 1.6-2.73 3.28-5.55 6.7-10.9 10.5-16.2 1.11-1.97 1.11-1.97 0.324-3.89-1.97-2.9-3.95-5.79-6.01-8.63-0.444-0.617-0.888-1.23-1.35-1.87-4.28-5.94-8.68-11.8-13.1-17.6-1.48-1.98-2.96-3.96-4.44-5.94-4.33-5.77-8.71-11.5-13.1-17.2-1.01-1.31-2.03-2.62-3.04-3.94-7.38-9.56-14.9-19-22.5-28.4-2.34-2.87-4.65-5.76-6.95-8.66-3.7-4.64-7.57-9.14-11.4-13.6-3.05-3.54-6.05-7.11-8.99-10.7-6.99-8.6-14.2-17-21.7-25.2-4.04-4.4-7.83-8.95-11.6-13.6-3-3.63-6.18-7.08-9.39-10.5-1.69-2.01-2.81-3.8-3.85-6.19 4.58 0.642 8.74 1.79 13.1 3.27 1.02 0.344 1.02 0.344 2.07 0.696 2.23 0.756 4.46 1.52 6.69 2.29 1.15 0.395 1.15 0.395 2.33 0.799 16.5 5.69 32.7 12.1 48.8 19 0.985 0.419 1.97 0.838 2.99 1.27 34.6 14.8 65.9 34.7 94.5 59 0.564 0.48 1.13 0.959 1.71 1.45 2.82 2.43 5.49 4.92 8.07 7.59 2.33 2.88 2.33 2.88 4.72 2.64 1.28-1.7 2.47-3.46 3.62-5.25 0.632-0.975 1.26-1.95 1.91-2.95 0.37-0.573 0.739-1.15 1.12-1.74 5.77-8.87 11.7-17.6 17.7-26.4 1.23-1.81 2.46-3.62 3.68-5.44 4.05-5.97 8.12-11.9 12.3-17.8 1.86-2.65 3.7-5.3 5.55-7.96 0.649-0.935 1.3-1.87 1.97-2.83 1.37-1.98 2.74-3.96 4.11-5.94 3.07-4.44 6.15-8.85 9.42-13.1 0.719-0.955 0.719-0.955 1.45-1.93 1.25-1.64 2.52-3.27 3.79-4.9 1.72-2.61 1.72-2.61 0.941-5.23-1.8-3-3.74-5.84-5.82-8.64-4.18-5.73-8.21-11.6-12.2-17.4-4.84-7.12-9.88-14-15.2-20.8-2.48-3.19-4.88-6.43-7.3-9.67-5.27-7.05-10.6-14-16-21-1.58-2.06-3.17-4.12-4.75-6.19-9.13-11.9-18.3-23.7-27.6-35.5-1.79-2.27-3.57-4.56-5.34-6.84-6.04-7.78-12.3-15.3-18.8-22.7-2.11-2.43-4.2-4.88-6.29-7.33-4.07-4.76-8.15-9.5-12.3-14.2-1.65-1.88-3.29-3.78-4.92-5.67-5.86-6.8-11.8-13.5-17.8-20.1-1.98-2.18-3.91-4.38-5.83-6.61-2.36-2.72-4.81-5.28-7.38-7.81-3.1-3.06-5.98-6.23-8.82-9.54-3.6-4.07-7.34-8.01-11.1-12-2.96-3.16-5.88-6.32-8.68-9.62-3.68-4.3-7.75-8.21-11.8-12.1-3.42-3.35-6.1-6.67-8.62-10.7 4.35 0.701 8.3 2.14 12.4 3.74 1.07 0.415 1.07 0.415 2.17 0.838 2.34 0.907 4.68 1.82 7.02 2.74 0.807 0.315 1.61 0.631 2.45 0.955 15.1 5.92 30.1 12.1 45 18.7 0.715 0.318 1.43 0.637 2.17 0.965 18.3 8.19 36.6 16.4 54 26.4 2.6 1.49 5.21 2.95 7.83 4.41 15.1 8.42 29.8 17.3 44 27.2 0.672 0.466 1.34 0.933 2.04 1.41 7.95 5.53 15.7 11.3 23.3 17.3 1.69 1.32 3.39 2.63 5.09 3.94 10.9 8.46 21.8 17.1 31.3 27.1 1.95 1.93 3.94 3.71 6.01 5.5 4.28 3.72 8.31 7.65 12.3 11.7 0.668 0.665 1.34 1.33 2.03 2.01 6.34 6.36 12.2 13.1 17.8 20 0.772 0.949 1.54 1.9 2.34 2.88 0.568 0.701 1.14 1.4 1.72 2.12 4.05-3.9 7.61-8.06 11.1-12.4 0.569-0.704 1.14-1.41 1.72-2.13 4.04-5.01 8.02-10.1 12-15.1 4.12-5.26 8.32-10.4 12.5-15.6 2.92-3.58 5.82-7.18 8.69-10.8 6.59-8.26 13.5-16.2 20.6-24.1 2.97-3.27 5.8-6.61 8.56-10.1 4.16-5.15 8.6-9.99 13.1-14.8 1.04-1.11 2.08-2.22 3.11-3.34 0.985-1.06 1.99-2.1 3.03-3.11 2.45-2.56 3.44-4.06 3.62-7.63-1.3-5.56-4.19-10.7-6.72-15.7-1.1-2.25-2.21-4.5-3.31-6.75-0.539-1.09-1.08-2.19-1.63-3.31-1.61-3.29-3.16-6.59-4.69-9.92-3.27-7.1-6.79-14-10.5-20.9-3.94-7.41-7.77-14.9-11.6-22.3-6.54-12.7-13.2-25.4-20.1-38-1.83-3.32-3.66-6.64-5.48-9.96-32.7-59.6-68.3-117-108-173-1.54-2.17-3.07-4.35-4.6-6.53-5.03-7.17-10.1-14.3-15.4-21.3-3.87-5.11-7.64-10.3-11.4-15.5-3.66-4.97-7.34-9.92-11-14.8z" fill="#000102"/>
</svg>